<?xml version="1.0" encoding="UTF-8" standalone="no"?>
<!-- Created with Inkscape (http://www.inkscape.org/) -->

<svg
   version="1.1"
   id="svg1"
   width="48"
   height="48"
   viewBox="0 0 48 48"
   sodipodi:docname="llm_eval.svg"
   xml:space="preserve"
   inkscape:export-filename="stats-setup.png"
   inkscape:export-xdpi="600"
   inkscape:export-ydpi="600"
   inkscape:version="1.3.2 (1:1.3.2+202311252150+091e20ef0f)"
   xmlns:inkscape="http://www.inkscape.org/namespaces/inkscape"
   xmlns:sodipodi="http://sodipodi.sourceforge.net/DTD/sodipodi-0.dtd"
   xmlns="http://www.w3.org/2000/svg"
   xmlns:svg="http://www.w3.org/2000/svg"><defs
     id="defs1"><inkscape:path-effect
       effect="fill_between_many"
       method="originald"
       linkedpaths="#path2,0,1|"
       id="path-effect4" /></defs><sodipodi:namedview
     id="namedview1"
     pagecolor="#ffffff"
     bordercolor="#999999"
     borderopacity="1"
     inkscape:showpageshadow="0"
     inkscape:pageopacity="0"
     inkscape:pagecheckerboard="0"
     inkscape:deskcolor="#d1d1d1"
     inkscape:zoom="6.3050355"
     inkscape:cx="-40.998976"
     inkscape:cy="26.010956"
     inkscape:window-width="1920"
     inkscape:window-height="1020"
     inkscape:window-x="0"
     inkscape:window-y="0"
     inkscape:window-maximized="1"
     inkscape:current-layer="layer1" /><g
     inkscape:groupmode="layer"
     inkscape:label="Image"
     id="g1"><path
       style="fill:#000000;stroke-width:0.999999"
       d="M 7.8387968,33.514034 C 6.7600258,33.309805 5.6379702,32.43007 5.1490478,31.405167 4.7989062,30.671184 4.7299596,30.224987 4.7299596,28.692975 V 27.397483 L 3.3218389,27.363973 C 2.2294061,27.337973 1.8359174,27.301923 1.566685,27.203183 1.088644,27.027864 0.53770289,26.511711 0.28983539,26.006957 l -0.2048441,-0.417141 v -4.09635 -4.096351 l 0.2052674,-0.418006 c 0.2517741,-0.512713 0.73688761,-0.95355 1.26798601,-1.152258 0.3481121,-0.130246 0.5690983,-0.14874 1.7774623,-0.14874 h 1.3799255 l 0.030295,-1.590993 c 0.02808,-1.474946 0.043496,-1.625753 0.2112942,-2.067564 0.4492363,-1.18282 1.1994659,-1.913499 2.4705113,-2.406126 l 0.4842155,-0.1876721 5.0290015,-0.023373 5.029,-0.023373 V 7.7910868 6.2031586 L 17.460876,5.9659808 C 15.523201,5.0632187 15.066212,2.4820786 16.576635,0.97165702 c 1.492219,-1.49221917 4.100681,-1.05222617 4.986701,0.84115198 0.744604,1.5911831 0.09738,3.4161226 -1.473209,4.15387 l -0.507999,0.2386219 -0.0015,1.586857 -0.0015,1.5868569 5.028997,0.026965 c 4.442186,0.023825 5.069943,0.041086 5.379869,0.1479608 0.9855,0.3398442 1.856828,1.0271384 2.306255,1.8191494 0.411659,0.725455 0.524864,1.356738 0.524864,2.926888 v 1.378131 h 1.387089 c 1.215568,0 1.436248,0.0184 1.784625,0.148737 0.5311,0.19871 1.016214,0.639548 1.267987,1.152261 l 0.205268,0.418006 v 4.096351 4.096349 l -0.204844,0.41714 c -0.247869,0.504754 -0.798809,1.020907 -1.27685,1.196225 -0.269232,0.09873 -0.662721,0.134788 -1.755154,0.160789 l -1.408121,0.03351 v 1.295491 c 0,1.532012 -0.06894,1.978211 -0.419088,2.712194 -0.503131,1.054685 -1.616583,1.90885 -2.758044,2.115785 -0.558467,0.101253 -21.2666733,0.09467 -21.8032856,-0.007 z M 29.47553,31.954724 c 0.922028,-0.240158 1.539288,-0.889791 1.733264,-1.824175 0.05236,-0.252275 0.0709,-3.107367 0.05749,-8.85862 l -0.01978,-8.486367 -0.241377,-0.490264 c -0.27754,-0.563723 -0.688097,-0.942547 -1.254903,-1.157916 -0.359588,-0.136635 -0.685399,-0.140814 -10.97564,-0.140814 -10.2902411,0 -10.6160514,0.0042 -10.97564,0.140814 -0.5668076,0.215369 -0.9773627,0.594193 -1.254906,1.157916 l -0.241371,0.490264 -0.019785,8.486367 c -0.013406,5.751253 0.00511,8.606345 0.057498,8.85862 0.1943666,0.936258 0.8747026,1.633348 1.8090025,1.853545 0.1516254,0.03573 4.8949365,0.06799 10.5915515,0.07207 8.911626,0.0066 10.37383,-0.0075 10.734597,-0.101433 z M 13.663787,20.282385 c -0.740241,-0.149083 -1.394308,-0.672427 -1.715779,-1.372863 -0.244097,-0.531852 -0.223822,-1.380731 0.04611,-1.930414 0.846341,-1.723486 3.35378,-1.723692 4.196936,-3.42e-4 0.171485,0.350503 0.204492,0.511815 0.205266,1.003199 7.8e-4,0.494386 -0.03097,0.65047 -0.203919,1.002675 -0.46442,0.945741 -1.538732,1.497102 -2.52861,1.297745 z m 0.884959,-1.675832 c 0.282774,-0.222427 0.381166,-0.524402 0.275342,-0.845052 -0.09517,-0.288392 -0.433257,-0.546525 -0.716388,-0.546987 -0.466421,-7.58e-4 -0.880423,0.505834 -0.781491,0.956267 0.10951,0.49864 0.820454,0.752053 1.222537,0.435772 z m 8.478126,1.675832 c -0.740241,-0.149083 -1.394309,-0.672427 -1.715779,-1.372863 -0.244098,-0.531852 -0.223821,-1.380731 0.0461,-1.930414 0.84634,-1.723486 3.35378,-1.723692 4.196934,-3.42e-4 0.171485,0.350503 0.204492,0.511815 0.205266,1.003199 7.81e-4,0.494386 -0.03096,0.65047 -0.203919,1.002675 -0.464421,0.945741 -1.538732,1.497102 -2.52861,1.297745 z m 0.88496,-1.675832 c 0.282773,-0.222427 0.381164,-0.524402 0.275341,-0.845052 -0.09518,-0.288392 -0.433257,-0.546525 -0.716389,-0.546987 -0.46642,-7.58e-4 -0.880421,0.505834 -0.78149,0.956267 0.109521,0.49864 0.820454,0.752053 1.222538,0.435772 z M 4.7299596,21.493465 v -4.279224 l -1.2618223,2.73e-4 c -1.4623723,3.18e-4 -1.6644651,0.06317 -1.8104291,0.563134 -0.055965,0.191689 -0.074207,1.407807 -0.058843,3.92302 l 0.022262,3.645211 0.238888,0.213403 0.238889,0.213405 H 3.4144337 4.729964 Z m 30.8530624,4.165057 c 0.382015,-0.267574 0.381603,-0.263117 0.381603,-4.127199 0,-3.94064 -0.0043,-3.982614 -0.4295,-4.2025 -0.175713,-0.09087 -0.479717,-0.114586 -1.468744,-0.114586 h -1.247166 v 4.279224 4.279221 h 1.300407 c 1.060007,0 1.330539,-0.0211 1.4634,-0.114173 z M 19.661894,4.4475097 C 20.12805,4.1191763 20.328144,3.6879628 20.295842,3.0813294 20.263884,2.481109 20.008757,2.066563 19.506078,1.7980596 19.231239,1.6512559 19.095928,1.6265464 18.686303,1.6483586 c -0.600219,0.031962 -1.014769,0.2870858 -1.28327,0.7897637 -0.146804,0.2748381 -0.171513,0.4101497 -0.149699,0.8197749 0.03196,0.6002203 0.287084,1.0147665 0.789761,1.28327 0.274839,0.1468035 0.41015,0.1715132 0.819776,0.1497009 0.401,-0.021352 0.546934,-0.0658 0.799023,-0.2433584 z"
       id="path3"
       sodipodi:nodetypes="csscscscccssscccscccccsssscccsssscssscccssscsssccssscssscscscscsssscsscssssssscscsscccsssssccsssccccccsssscccsssssssssss" /></g><g
     inkscape:groupmode="layer"
     id="layer1"
     inkscape:label="Image 1"><path
       inkscape:original-d="M 0,0"
       inkscape:path-effect="#path-effect4"
       d="m 25.447435,30.284714 c -5.883133,1.914289 -10.343563,6.444863 -12.182048,12.360879 -0.592203,1.905639 -0.638593,3.787929 -0.885167,5.73898 h 35.846549 c -0.357697,-1.926796 -0.292583,-3.824562 -0.885166,-5.73898 -1.832404,-5.91982 -6.301809,-10.447528 -12.182049,-12.360879 2.164884,-1.432508 3.933947,-3.060182 4.851361,-5.562395 2.616359,-7.136029 -3.099096,-14.270854 -10.502048,-13.946659 -6.546765,0.2867 -10.880983,7.155633 -9.144627,13.240323 0.806476,2.82612 2.701197,4.692563 5.083195,6.268731 z"
       id="path4"
       style="fill:#ffffff;stroke-width:1.03852"
       transform="matrix(0.96290693,0,0,0.96290693,1.1129758,1.0969409)" /><path
       style="fill:#030303;stroke:none;stroke-width:0.830591"
       d="m 30.818826,53.344052 c -4.886475,1.58999 -8.591267,5.353043 -10.118295,10.266831 -0.491879,1.582806 -0.53041,3.146218 -0.735212,4.766743 h 29.77381 c -0.2971,-1.600379 -0.243017,-3.176646 -0.735211,-4.766743 -1.521978,-4.916948 -5.234224,-8.67762 -10.118296,-10.266831 1.798132,-1.189828 3.267499,-2.541759 4.029495,-4.620074 2.173123,-5.927119 -2.57408,-11.853238 -8.722903,-11.583965 -5.437682,0.238131 -9.037643,5.943402 -7.595442,10.997289 0.669851,2.347349 2.243589,3.897599 4.222054,5.20675 m 3.300053,-14.645907 c 0.845249,-0.103805 1.747287,-0.0081 2.566708,0.210382 5.869303,1.56505 6.949718,9.462282 1.980032,12.748549 -0.914099,0.604459 -1.996186,0.946196 -3.08005,1.079305 -0.799339,0.09817 -1.640395,0.01078 -2.420039,-0.173659 -5.91625,-1.399562 -7.219764,-9.539468 -2.1267,-12.781593 0.933285,-0.594106 1.982511,-0.948194 3.080049,-1.082984 M 48.052436,66.837601 H 21.652013 c 0.01414,-1.708509 0.692426,-3.551451 1.448583,-5.060081 0.799631,-1.595366 1.901406,-3.053977 3.244825,-4.232409 6.47786,-5.682294 16.452483,-3.360949 20.258432,4.232409 0.756155,1.508626 1.434441,3.351572 1.448583,5.060081 z"
       id="path2"
       transform="matrix(1.1593038,0,0,1.1593038,-10.111895,-31.58366)" /></g></svg>
